<svg version="1.0" xmlns="http://www.w3.org/2000/svg" width="300.000000pt" height="300.000000pt" viewBox="0 0 300.000000 300.000000" preserveAspectRatio="xMidYMid meet">
<metadata>
Created by potrace 1.10, written by Peter Selinger 2001-2011
</metadata>
<g transform="translate(0.000000,300.000000) scale(0.100000,-0.100000)" fill="#000000" stroke="none">
<path d="M420 2413 l0 -48 62 -2 c72 -3 121 -25 160 -74 21 -25 763 -1616 843 -1807 8 -17 20 -32 28 -32 8 0 103 212 252 562 472 1113 517 1217 546 1262 39 59 95 86 183 89 l66 2 0 48 0 47 -355 0 -355 0 0 -47 0 -48 87 -3 c140 -4 190 -41 178 -132 -6 -45 -435 -1134 -443 -1125 -10 9 -444 1034 -457 1079 -41 135 -2 177 167 180 l58 1 0 48 0 47 -510 0 -510 0 0 -47z m834 7 c123 0 157 -6 87 -15 -103 -13 -154 -43 -172 -104 -16 -53 0 -118 66 -274 30 -70 55 -129 55 -132 0 -3 16 -39 35 -80 19 -41 61 -139 94 -217 147 -349 198 -465 215 -491 24 -36 53 -32 81 9 12 17 88 199 169 405 82 206 164 409 182 451 56 131 84 225 84 284 0 50 -4 60 -33 89 -35 35 -83 53 -154 57 -73 4 -47 18 35 19 75 0 122 0 381 -1 68 0 121 -3 117 -7 -4 -4 -19 -9 -34 -10 -53 -7 -95 -26 -135 -62 -68 -62 -39 2 -450 -966 -63 -148 -138 -325 -166 -391 -27 -67 -61 -146 -74 -175 -14 -30 -44 -102 -68 -161 -44 -108 -62 -127 -78 -85 -5 12 -32 72 -61 132 -29 61 -75 160 -102 220 -28 61 -68 148 -89 193 -22 46 -39 85 -39 87 0 2 -27 60 -60 130 -33 70 -60 128 -60 130 0 2 -23 52 -51 112 -28 59 -70 151 -94 203 -205 453 -234 509 -285 561 -32 32 -59 49 -95 59 -28 7 -54 16 -60 19 -17 10 151 16 395 14 129 -2 293 -3 364 -3z"/>
</g>
</svg>
