<svg version="1.0" xmlns="http://www.w3.org/2000/svg" width="32.000000pt" height="32.000000pt" viewBox="0 0 32.000000 32.000000" preserveAspectRatio="xMidYMid meet">
<metadata>
Created by potrace 1.10, written by Peter Selinger 2001-2011
</metadata>
<g transform="translate(0.000000,32.000000) scale(0.100000,-0.100000)" fill="#000000" stroke="none">
<path d="M82 274 l-63 -36 3 -80 3 -80 68 -37 67 -36 68 36 c45 25 68 43 70 57 3 19 -4 17 -67 -19 l-70 -41 -56 32 -55 31 0 59 0 59 70 42 c39 23 70 43 70 45 0 14 -55 -2 -108 -32z"/>
<path d="M176 273 l-29 -15 46 -26 c46 -25 47 -27 47 -74 0 -52 4 -56 38 -32 18 12 22 25 22 64 0 47 -1 49 -46 74 -26 14 -47 26 -48 26 0 -1 -14 -8 -30 -17z"/>
<path d="M107 231 c-15 -8 -27 -18 -27 -22 0 -3 18 -14 40 -24 39 -18 40 -19 40 -72 l0 -54 30 16 c28 14 30 20 30 68 0 51 -1 53 -43 78 -42 25 -45 26 -70 10z"/>
</g>
</svg>
